<svg width="846" height="846" viewBox="0 0 846 846" fill="none" xmlns="http://www.w3.org/2000/svg">
<g clip-path="url(#clip0_173_595)">
<path d="M66.2006 559.836C54.3739 557.112 43.2096 552.055 33.3618 544.962C24.7275 538.672 19.4168 529.777 13.2193 513.043C5.01582 490.893 2.65642 464.279 7.57179 435.92C8.5695 430.158 9.83285 423.333 11.5103 415.273C14.2295 402.245 17.9066 386.2 23.2236 373.989C31.0714 355.938 41.2933 341.495 53.6675 326.19C78.0268 296.071 93.3314 282.498 123.7 262.667C172.659 236.94 203.973 229.008 259.115 219.903C314.257 210.798 424.037 217.812 477.575 233.848C537.482 251.792 585.395 284.976 642.102 337.035C648.372 342.711 656.095 346.532 664.41 348.073C706.765 356.23 724.199 358.031 759.747 366.224C778.751 370.606 797.854 377.661 812.218 390.858C837.65 414.221 840.246 452.616 840.691 487.316C840.927 499.261 839.385 511.174 836.115 522.665C828.794 547.687 817.081 561.936 785.961 564.09L627.538 565.328C521.435 565.328 320.762 563.471 214.166 564.701L66.2006 559.836Z" fill="white"/>
<path d="M214.156 531.299C231.177 531.299 256.308 531.326 256.308 531.326C270.253 531.326 535.196 532.257 584.252 531.996H623.305C620.785 539.656 619.504 547.67 619.513 555.734C619.513 559.022 619.669 562.218 619.952 565.324L217.774 564.722C218.027 561.793 218.167 558.809 218.167 555.728C218.177 547.438 216.821 539.204 214.156 531.356V531.299Z" fill="white"/>
<path d="M501.527 360.081C542.5 360.972 581.744 361.491 605.921 361.154C606.639 361.146 607.339 360.929 607.937 360.53C608.534 360.132 609.003 359.568 609.287 358.908C609.57 358.248 609.656 357.52 609.534 356.813C609.412 356.105 609.087 355.448 608.598 354.921C592.411 337.726 578.311 319.945 553.797 303.569C523.887 283.604 484.539 266.152 444.333 256.392C418.589 249.272 391.921 246.061 365.223 246.865C367.8 264.213 377.898 316.531 383.161 356.636C414.514 357.828 458.956 359.157 501.527 360.081Z" fill="#87CCE3"/>
<path d="M835.15 432.036C831.149 416.271 824.225 401.889 812.217 390.858C803.929 383.478 794.377 377.656 784.02 373.671C775.626 374.951 765.643 376.588 757.071 378.435C754.803 378.737 752.583 379.325 750.464 380.186C748.42 381.215 745.638 383.401 746.908 387.235C750.895 399.823 756.487 411.844 763.547 423.002C766.6 428.211 771.558 432.03 777.375 433.653C798.059 439.16 820.513 438.369 836.658 438.74C836.212 436.481 835.709 434.246 835.15 432.036Z" fill="white"/>
<path d="M359.037 355.662C356.945 339.11 353.846 318.968 350.798 299.009C347.953 280.394 345.151 261.924 343.268 246.693C326.203 246.885 309.178 247.856 292.192 249.605C266.883 252.198 241.637 256.528 217.562 264.769C180.469 277.469 129.044 300.178 105.404 331.459C105.158 331.787 105 332.173 104.944 332.579C104.889 332.985 104.937 333.399 105.085 333.781C105.232 334.164 105.475 334.502 105.79 334.765C106.104 335.028 106.48 335.207 106.883 335.285C154.42 344.421 288.109 351.717 340.444 354.666L359.037 355.662Z" fill="#87CCE3"/>
<path d="M751.757 385.909C754.456 394.49 757.978 402.791 762.274 410.695C766.06 417.698 769.739 426.043 777.961 428.597C795.6 434.077 814.961 433.408 833.214 433.663C839.669 433.753 839.688 443.795 833.214 443.703C817.552 443.481 801.888 443.414 786.401 440.741C778.662 439.405 771.101 437.757 765.002 432.5C759.185 427.48 755.614 419.706 752.138 412.998C748.078 405.167 744.711 396.996 742.075 388.578C740.14 382.397 749.831 379.753 751.757 385.909Z" fill="#211715"/>
<path d="M789.285 398.25C790.295 403.324 790.489 408.768 792.504 413.592L791.997 412.391C792.117 412.667 792.244 412.937 792.386 413.203C793.058 414.352 793.246 415.722 792.908 417.01C792.57 418.298 791.734 419.399 790.585 420.071C789.435 420.742 788.065 420.93 786.777 420.592C785.489 420.254 784.388 419.418 783.717 418.269C780.887 413 780.749 406.671 779.602 400.908C779.28 399.6 779.46 398.219 780.108 397.039C780.607 396.185 781.345 395.498 782.233 395.062C783.12 394.627 784.115 394.463 785.095 394.592C786.075 394.72 786.995 395.134 787.74 395.783C788.486 396.432 789.023 397.286 789.285 398.239V398.25Z" fill="#211715"/>
<path d="M49.6324 380.199C40.6365 379.026 31.7826 376.945 23.2065 373.986C17.8244 387.106 13.9271 400.787 11.5874 414.774C12.6981 414.836 13.4448 414.884 13.4448 414.884C22.7141 416.008 32.0397 416.607 41.3767 416.677C42.4872 416.738 43.5904 416.464 44.5434 415.891C45.3937 415.103 45.9618 414.058 46.1602 412.916C48.7769 403.276 51.1927 393.225 54.0144 384.167C54.1424 383.767 54.1807 383.343 54.1265 382.927C54.0724 382.51 53.9271 382.111 53.701 381.757C53.4749 381.403 53.1736 381.104 52.8185 380.879C52.4635 380.655 52.0634 380.512 51.6467 380.46C51.0066 380.387 50.3373 380.297 49.6324 380.199Z" fill="white"/>
<path d="M619.956 570.354C596.358 570.336 572.761 570.267 549.164 570.145C521.684 570.032 494.203 569.908 466.722 569.771C437.889 569.631 409.055 569.515 380.22 569.422C352.56 569.334 324.9 569.293 297.242 569.298C273.389 569.318 249.535 569.418 225.68 569.599C223.045 569.624 220.409 569.651 217.774 569.679C211.311 569.748 211.306 559.708 217.774 559.639C241.104 559.388 264.435 559.265 287.767 559.269C315.111 559.228 342.455 559.255 369.797 559.35C398.624 559.433 427.451 559.543 456.278 559.683C484.058 559.808 511.838 559.936 539.618 560.066C563.722 560.167 587.825 560.245 611.928 560.298H619.956C626.415 560.298 626.427 570.338 619.956 570.338V570.354Z" fill="#211715"/>
<path d="M785.969 559.076C802.539 557.821 817.112 552.051 825.24 536.865C835.633 517.451 836.179 494.823 835.345 473.369C834.541 452.812 832.372 431.118 822.586 412.636C811.697 392.071 791.636 380.544 769.922 374.085C750.597 368.335 730.409 364.98 710.574 361.493C700.488 359.719 690.394 357.981 680.32 356.145C668.766 354.036 656.705 352.725 646.465 346.523C641.503 343.195 636.872 339.4 632.635 335.189C627.83 330.844 622.981 326.55 618.089 322.308C608.826 314.291 599.386 306.462 589.672 298.995C572.08 285.3 553.392 273.074 533.796 262.441C515.083 252.398 495.383 244.316 475.008 238.324C458.787 233.807 442.271 230.43 425.578 228.218C385.854 222.454 345.712 220.069 305.585 221.087C266.923 222.184 228.576 228.394 191.544 239.554C171.278 245.798 151.614 253.848 132.788 263.608C114.94 273.105 98.593 285.184 84.274 299.455C68.3623 314.898 54.1353 331.987 41.8324 350.435C35.0836 360.3 29.5568 370.947 25.3732 382.144C21.6444 393.205 18.6723 404.506 16.4774 415.97C11.4407 440.062 7.74059 464.314 11.9699 488.858C13.9145 500.186 17.3181 511.214 22.0956 521.667C25.7706 529.687 30.3492 536.846 37.7097 541.91C46.7395 548.109 56.8582 552.548 67.5345 554.994C73.8304 556.441 71.1656 566.123 64.8656 564.674C44.5055 559.988 24.7059 549.195 15.0258 530.063C4.26101 508.271 -0.877451 484.13 0.078894 459.842C0.723293 446.977 2.40838 434.184 5.11766 421.59C7.33411 409.392 10.2038 397.322 13.7144 385.432C21.0811 361.669 35.0491 341.219 50.5671 322.055C63.757 305.799 77.8338 290.344 94.3369 277.353C102.842 270.419 111.799 264.061 121.15 258.319C131.581 252.478 142.371 247.303 153.455 242.824C172.825 234.563 192.906 228.08 213.45 223.455C233.958 218.58 254.754 215.01 275.714 212.767C315.907 208.899 356.933 210.719 397.03 214.724C436.411 218.659 475.065 225.371 511.7 240.834C555.643 259.383 594.153 287.928 629.799 319.244C639.115 327.422 647.841 337.801 659.948 341.738C666.125 343.461 672.407 344.78 678.756 345.687C684.7 346.785 690.649 347.856 696.602 348.899C716.376 352.382 736.148 355.789 755.749 360.182C778.998 365.39 803.068 373.227 819.703 391.249C834.65 407.432 840.854 428.997 843.577 450.388C846.575 473.925 847.744 499.462 841.381 522.508C836.907 538.714 829.013 554.72 813.282 562.5C804.689 566.446 795.415 568.692 785.969 569.116C779.523 569.602 779.554 559.56 785.969 559.076Z" fill="#211715"/>
<path d="M501.527 355.061C523.126 355.53 544.726 355.923 566.329 356.122C575.264 356.205 584.199 356.242 593.133 356.233C596.727 356.233 600.565 356.27 604.01 356.161C603.941 356.161 603.844 356.285 603.817 356.281C603.455 356.237 604.146 356.329 603.859 356.247C604.426 356.406 603.623 355.737 603.89 356.26C604.008 356.492 604.152 356.603 603.874 356.276C603.01 355.26 601.487 353.49 600.385 352.223C588.952 338.646 576.094 326.336 562.032 315.504C546.08 303.78 529.003 293.671 511.051 285.326C492.146 276.392 472.495 269.135 452.321 263.637C431.463 257.594 410.03 253.747 388.371 252.158C383.047 251.846 377.718 251.707 372.383 251.74C372.056 251.74 370.724 252.085 371.05 251.757C371.157 252.189 371.227 252.629 371.26 253.073C371.406 253.951 371.557 254.832 371.705 255.712C372.939 262.956 374.215 270.191 375.491 277.428C378.75 296.004 381.975 314.588 384.824 333.231C385.529 337.821 386.208 342.417 386.859 347.019C386.837 348.712 387.129 350.394 387.719 351.98C386.439 350.2 387.254 351.771 387.288 351.771C387.797 351.84 388.311 351.859 388.823 351.828L392.743 351.97C402.179 352.309 411.614 352.625 421.049 352.919C442.509 353.594 463.972 354.186 485.438 354.695C490.799 354.823 496.16 354.945 501.523 355.061C507.974 355.203 507.997 365.243 501.523 365.101C478.097 364.591 454.67 363.982 431.244 363.275C420.848 362.961 410.453 362.626 400.057 362.269C397.75 362.188 395.442 362.107 393.134 362.024C390.494 362.111 387.851 361.954 385.24 361.556C379.411 360.215 377.957 355.281 377.229 350.104C374.376 329.815 370.954 309.618 367.436 289.446C365.953 280.935 364.445 272.431 362.968 263.928C362.41 260.711 361.824 257.494 361.322 254.267C360.498 248.977 362.709 243.65 368.256 242.102C370.72 241.631 373.238 241.502 375.738 241.717C378.806 241.742 381.873 241.824 384.941 241.962C390.669 242.218 396.386 242.665 402.092 243.302C413.967 244.61 425.748 246.661 437.366 249.441C459.594 254.666 481.352 261.721 502.416 270.536C522.001 278.708 540.736 288.786 558.351 300.622C574.663 311.802 589.554 324.926 602.694 339.704C606.24 343.219 609.497 347.013 612.433 351.052C613.628 353.034 614.104 355.368 613.78 357.66C613.456 359.952 612.352 362.063 610.655 363.637C607.235 366.823 602.412 366.241 598.105 366.268C593.666 366.296 589.228 366.304 584.789 366.291C563.059 366.245 541.331 365.906 519.605 365.49C513.58 365.376 507.555 365.252 501.531 365.12C495.077 364.963 495.054 354.921 501.527 355.061Z" fill="#211715"/>
<path d="M211.528 271.705C204.568 283.204 198.334 295.126 192.862 307.403C187.072 319.589 181.502 331.875 176.051 344.216C175.373 345.359 174.272 346.189 172.987 346.526C171.701 346.863 170.334 346.68 169.182 346.017C168.057 345.323 167.243 344.222 166.907 342.943C166.572 341.664 166.742 340.305 167.382 339.148C172.832 326.807 178.402 314.521 184.192 302.335C189.663 290.057 195.898 278.135 202.86 266.637C206.332 261.211 215.025 266.239 211.528 271.703V271.705Z" fill="#211715"/>
<path d="M354.017 355.662C350.853 330.714 346.743 305.893 343.032 281.023C342.094 274.732 341.181 268.437 340.294 262.14C339.876 259.122 339.467 256.104 339.066 253.085C338.989 252.499 338.897 251.914 338.834 251.326C338.556 248.718 338.711 250.847 338.834 250.828L340.323 251.753L338.272 251.79C337.244 251.811 336.218 251.835 335.193 251.861C322.195 252.197 309.221 252.985 296.269 254.223C271.038 256.62 245.837 260.736 221.706 268.666C203 274.767 184.783 282.279 167.215 291.138C149.628 300.059 132.301 310.52 118.22 324.477C116.622 326.063 115.073 327.696 113.574 329.378C112.877 330.157 112.195 330.949 111.529 331.752C111.233 332.105 110.942 332.46 110.654 332.819C109.525 334.218 109.987 334.492 108.981 332.191C107.923 329.807 108.169 330.434 109.711 330.727C110.364 330.846 111.018 330.965 111.673 331.08C113.067 331.323 114.462 331.557 115.856 331.781C118.785 332.252 121.713 332.689 124.641 333.091C127.174 333.444 130.307 333.85 133.652 334.258C167.579 338.41 201.72 340.903 235.808 343.264C267.9 345.488 300.022 347.372 332.13 349.177L340.453 349.646C346.879 350.008 346.921 360.05 340.453 359.686C308.413 357.881 276.373 356.048 244.355 353.888C208.332 351.457 172.258 348.893 136.396 344.63C129.308 343.794 122.225 342.869 115.17 341.775C112.33 341.334 109.496 340.863 106.67 340.336C105.532 340.189 104.439 339.799 103.465 339.193C102.491 338.587 101.658 337.779 101.022 336.824C98.9662 333.532 100.129 330.131 102.302 327.334C114.725 311.346 131.929 299.306 149.364 289.356C168.014 278.923 187.515 270.092 207.659 262.96C231.5 254.474 256.228 248.72 281.366 245.808C294.991 244.118 308.668 242.949 322.398 242.301C325.644 242.142 328.891 242.011 332.139 241.909C335.485 241.803 339.46 241.14 342.706 242.054C349.566 243.988 349.016 252.397 349.801 258.078C353.457 284.541 357.833 310.898 361.598 337.351C362.466 343.453 363.293 349.559 364.076 355.668C364.07 356.997 363.539 358.27 362.599 359.21C361.659 360.15 360.386 360.681 359.056 360.688C357.735 360.656 356.476 360.117 355.541 359.183C354.607 358.248 354.068 356.989 354.036 355.668L354.017 355.662Z" fill="#211715"/>
<path d="M373.324 371.958C375.625 388.145 377.716 404.286 378.415 420.632C379.237 439.779 379.643 458.941 379.77 478.106C379.841 488.823 379.87 499.539 379.856 510.255C379.856 516.716 369.816 516.727 369.816 510.255C369.816 491.198 369.816 472.137 369.417 453.082C369.074 436.499 368.789 419.806 367.25 403.28C366.354 393.694 365.001 384.156 363.644 374.624C363.333 373.342 363.523 371.99 364.174 370.842C364.825 369.695 365.889 368.839 367.149 368.448C368.433 368.103 369.8 368.278 370.956 368.935C372.112 369.591 372.962 370.679 373.324 371.958Z" fill="#211715"/>
<path d="M601.391 383.137C606.513 398.43 609.482 414.361 610.212 430.471C610.711 447.45 610.24 464.444 608.8 481.369C608.041 490.855 606.997 500.318 605.598 509.73C605.236 511.009 604.386 512.095 603.23 512.751C602.074 513.408 600.707 513.583 599.423 513.238C598.157 512.855 597.087 512 596.434 510.851C595.781 509.701 595.596 508.344 595.915 507.061C598.218 490.918 599.609 474.657 600.082 458.357C600.611 443.088 601.038 427.451 598.339 412.358C596.734 403.367 594.519 394.496 591.711 385.806C589.716 379.644 599.406 377.005 601.391 383.137Z" fill="#211715"/>
<path d="M584.252 537.016C567.54 537.104 550.826 537.066 534.113 537.047C508.049 537.021 481.985 536.972 455.921 536.903C427.123 536.836 398.328 536.76 369.536 536.675C345.298 536.606 321.061 536.537 296.824 536.466C283.789 536.427 270.755 536.39 257.721 536.355H256.315C249.856 536.355 249.846 526.315 256.315 526.315C267.499 526.315 278.686 526.373 289.87 526.407L359.58 526.616C388.216 526.7 416.851 526.777 445.486 526.848C472.226 526.914 498.966 526.967 525.707 527.007C543.944 527.032 562.183 527.066 580.42 527.007L584.258 526.993C590.72 526.957 590.728 536.997 584.258 537.032L584.252 537.016Z" fill="#211715"/>
<path d="M168.187 367.502C164.172 377.738 160.735 388.191 157.894 398.812C154.5 410.419 151.226 422.088 148.501 433.872C148.051 435.824 147.608 437.78 147.246 439.75C147.177 440.133 147.141 440.53 147.051 440.907C146.897 441.563 147.093 439.48 147.11 440.488C147.11 440.681 147.001 440.978 147.068 441.164C146.836 440.069 146.369 439.038 145.698 438.141L142.142 436.677C150.747 436.762 159.343 437.285 167.895 438.244C177.232 439.441 186.343 442.006 194.933 445.855C208.81 451.833 220.099 462.563 226.774 476.117C227.412 477.275 227.581 478.633 227.246 479.911C226.91 481.189 226.097 482.289 224.973 482.984C223.821 483.644 222.455 483.826 221.171 483.489C219.886 483.152 218.785 482.324 218.105 481.183C215.057 474.664 210.727 468.826 205.373 464.017C200.417 459.872 194.848 456.52 188.865 454.082C180.764 450.683 172.189 448.549 163.439 447.753C159.407 447.349 155.357 447.125 151.308 446.989C149.352 446.92 147.394 446.868 145.439 446.813C143.094 446.749 140.402 447.043 138.595 445.247C136.269 442.933 137.105 439.52 137.633 436.688C138.283 433.186 139.136 429.72 139.992 426.265C142.592 415.769 145.491 405.349 148.543 394.97C151.298 384.747 154.62 374.685 158.493 364.831C158.883 363.571 159.739 362.508 160.886 361.857C162.033 361.205 163.385 361.016 164.667 361.326C165.95 361.683 167.039 362.533 167.699 363.689C168.358 364.846 168.533 366.217 168.187 367.502Z" fill="#211715"/>
<path d="M25.3652 369.466C31.6703 371.659 38.1556 373.294 44.7464 374.352C46.1938 374.615 47.644 374.857 49.097 375.08C49.8611 375.198 50.6246 375.31 51.3874 375.417C51.1636 375.386 50.6281 375.31 51.6468 375.449C52.2881 375.503 52.9243 375.606 53.5501 375.756C58.4299 377.191 59.8648 382.192 58.5136 386.616C56.081 394.583 54.0835 402.675 51.9479 410.726C50.8414 414.91 49.9107 419.461 45.3153 421.071C42.1453 421.855 38.861 422.068 35.6164 421.699C28.2057 421.45 20.8222 420.653 13.4449 419.923C12.1249 419.887 10.8687 419.347 9.93499 418.413C9.00123 417.479 8.46087 416.223 8.42498 414.903C8.43429 413.575 8.96615 412.303 9.90556 411.364C10.845 410.424 12.1164 409.893 13.4449 409.883C18.9878 410.425 24.5306 410.998 30.086 411.37C32.8345 411.555 35.5871 411.697 38.3397 411.718C39.5671 411.537 40.8122 411.511 42.0461 411.64C41.8536 411.475 43.3011 410.331 41.5002 412.082C40.3184 413.234 41.2471 412.303 41.2492 412.046C41.2492 412.395 41.2931 411.699 41.3203 411.601C41.4688 411.082 41.6027 410.555 41.7386 410.034C43.5981 403.104 45.33 396.139 47.2815 389.235C47.7458 387.595 48.2241 385.959 48.7164 384.328C48.7874 383.946 48.901 383.575 49.0552 383.219C49.5133 382.487 49.0656 383.428 49.189 383.846C49.4108 384.599 50.2558 384.892 50.6532 385.311C51.2117 385.442 51.2807 385.474 50.8624 385.405L49.9295 385.281C47.0849 384.899 44.2521 384.451 41.4312 383.936C35.0611 382.886 28.7931 381.291 22.6963 379.167C21.4318 378.784 20.3629 377.929 19.7105 376.78C19.0581 375.631 18.8721 374.275 19.1907 372.993C19.5536 371.715 20.4045 370.631 21.5596 369.975C22.7148 369.318 24.0816 369.143 25.3652 369.485V369.466Z" fill="#211715"/>
<path d="M390.921 396.294C391.008 392.027 390.402 387.224 393.474 383.8C394.404 382.799 395.531 382.002 396.785 381.46C398.039 380.918 399.392 380.642 400.758 380.65C403.458 380.569 406.173 380.65 408.873 380.65H433.636C434.339 380.65 435.048 380.623 435.751 380.65C437.734 380.672 439.662 381.305 441.272 382.463C442.881 383.622 444.094 385.249 444.745 387.122C445.226 389.035 445.368 391.017 445.163 392.979C445.281 395.184 445.057 397.395 444.5 399.532C443.828 401.362 442.615 402.946 441.023 404.071C439.43 405.197 437.534 405.813 435.584 405.836C428.865 406.093 422.088 405.836 415.366 405.836H402.523C401.814 405.836 401.096 405.867 400.387 405.836C397.884 405.779 395.5 404.754 393.737 402.976C391.974 401.198 390.969 398.806 390.933 396.302C390.933 394.971 391.462 393.694 392.403 392.753C393.345 391.811 394.622 391.282 395.953 391.282C397.284 391.282 398.561 391.811 399.503 392.753C400.444 393.694 400.973 394.971 400.973 396.302C400.937 395.566 400.007 396.003 400.781 395.796C401.642 395.696 402.511 395.696 403.372 395.796H433.701C433.927 395.796 435.418 395.62 435.556 395.796C435.556 395.784 435.28 395.984 435.115 396.087C434.864 396.244 435.213 396.957 435.04 396.135C434.961 395.082 434.992 394.025 435.132 392.979C435.144 392.548 435.015 389.674 435.427 390.567C435.556 390.845 435.845 390.529 435.686 390.699C435.498 390.908 433.937 390.699 433.657 390.699H402.425C401.796 390.779 401.159 390.779 400.53 390.699C400.678 390.92 401.291 390.084 401.09 390.017C401.195 392.109 401.151 394.206 400.96 396.292C400.829 402.745 390.789 402.768 390.921 396.294Z" fill="#211715"/>
<path d="M179.587 396.294C179.674 392.027 179.068 387.224 182.141 383.8C183.07 382.799 184.197 382.002 185.451 381.46C186.705 380.918 188.058 380.642 189.424 380.65C192.122 380.569 194.839 380.65 197.539 380.65H222.302C223.005 380.65 223.714 380.623 224.417 380.65C226.4 380.672 228.328 381.305 229.938 382.463C231.547 383.622 232.76 385.249 233.411 387.122C233.892 389.035 234.034 391.017 233.829 392.979C233.94 395.182 233.71 397.39 233.147 399.523C232.475 401.354 231.263 402.937 229.67 404.063C228.078 405.189 226.181 405.804 224.231 405.828C217.512 406.085 210.733 405.828 204.013 405.828H191.17C190.461 405.828 189.744 405.859 189.035 405.828C186.531 405.771 184.147 404.746 182.384 402.968C180.621 401.19 179.616 398.798 179.58 396.294C179.58 394.962 180.109 393.686 181.051 392.744C181.992 391.803 183.269 391.274 184.6 391.274C185.932 391.274 187.209 391.803 188.15 392.744C189.091 393.686 189.62 394.962 189.62 396.294C189.585 395.558 188.654 395.995 189.428 395.788C190.289 395.687 191.158 395.687 192.019 395.788H222.348C222.574 395.788 224.065 395.612 224.204 395.788C224.204 395.775 223.927 395.976 223.762 396.078C223.511 396.235 223.86 396.949 223.687 396.127C223.608 395.074 223.639 394.016 223.779 392.97C223.791 392.539 223.662 389.665 224.074 390.559C224.204 390.837 224.492 390.521 224.333 390.69C224.145 390.9 222.585 390.69 222.304 390.69H191.093C190.464 390.771 189.827 390.771 189.198 390.69C189.346 390.912 189.959 390.075 189.758 390.008C189.863 392.101 189.82 394.197 189.629 396.283C189.495 402.745 179.455 402.768 179.587 396.294Z" fill="#211715"/>
<path d="M553.22 369.933C555.017 371.503 556.678 373.222 558.186 375.072C559.191 376.264 560.123 377.515 560.978 378.818C562.08 380.329 562.744 382.115 562.898 383.978C562.907 384.996 562.649 385.998 562.149 386.885C561.65 387.771 560.926 388.512 560.051 389.032C558.826 389.649 557.484 389.999 556.113 390.059C554.743 390.232 553.367 390.349 551.988 390.423C550.455 390.502 548.918 390.529 547.387 390.523C546.403 390.549 545.418 390.51 544.439 390.406C543.504 390.307 542.606 389.988 541.818 389.474C541.03 388.961 540.375 388.268 539.907 387.452C539.182 385.596 538.718 383.647 538.528 381.663C538.166 379.956 537.727 378.268 537.213 376.599C536.875 375.316 537.054 373.951 537.71 372.798C538.367 371.645 539.449 370.795 540.725 370.431C542.006 370.106 543.363 370.289 544.513 370.941C545.663 371.593 546.516 372.664 546.895 373.93C547.378 375.509 547.803 377.107 548.15 378.722C548.319 379.508 548.474 380.297 548.614 381.088C548.7 381.93 548.853 382.764 549.07 383.583L548.564 382.384L548.685 382.594L547.901 381.577L548.041 381.709L547.027 380.924L547.221 381.033L546.023 380.527C546.15 380.588 546.288 380.625 546.429 380.634L545.094 380.454C548.855 380.576 552.62 380.42 556.358 379.985L555.023 380.165C555.324 380.134 555.623 380.078 555.914 379.996L554.716 380.502C554.84 380.455 554.955 380.388 555.059 380.305L554.042 381.09L554.178 380.952L553.392 381.968L553.49 381.801L552.984 383.001L553.04 382.765L552.86 384.1L552.846 383.853L553.026 385.189C552.971 384.971 552.901 384.756 552.816 384.547L553.323 385.746C552.671 384.366 551.854 383.07 550.89 381.887L551.674 382.901C550.016 380.771 548.157 378.805 546.123 377.03C545.187 376.085 544.662 374.81 544.662 373.48C544.662 372.151 545.187 370.875 546.123 369.931C547.08 369.019 548.351 368.51 549.673 368.51C550.995 368.51 552.266 369.019 553.222 369.931L553.22 369.933Z" fill="#211715"/>
<path d="M542.059 375.264C542.968 378.229 543.647 381.259 544.092 384.328C544.111 384.613 544.202 384.889 544.358 385.129C544.553 385.333 544.818 385.457 545.1 385.476C549.03 385.62 552.965 385.44 556.866 384.938C557.064 384.926 557.256 384.865 557.425 384.761C557.594 384.656 557.734 384.511 557.832 384.338C557.922 384.013 557.881 383.667 557.719 383.372C555.679 379.601 552.948 376.246 549.671 373.482L542.059 375.264Z" fill="#211715"/>
<path d="M560.973 340.363C561.131 336.594 560.064 332.875 557.932 329.763C554.643 326.03 550.151 323.566 545.235 322.798L539.237 322.588C537.45 322.755 535.743 323.41 534.304 324.482C532.865 325.554 531.749 327.002 531.079 328.667C529.766 333.601 530.452 344.827 530.326 347.013C529.995 354.345 530.184 361.692 530.891 368.998C531.236 372.001 533.292 375.187 538.53 374.101C543.767 373.016 551.374 372.029 553.769 369.14C556.224 365.628 557.847 361.603 558.513 357.37C559.727 351.765 560.549 346.083 560.973 340.363Z" fill="white"/>
<path d="M555.953 340.363C555.869 336.308 554.804 332.913 551.832 330.815C550.184 329.629 548.353 328.721 546.411 328.127C545.458 327.811 544.452 327.687 543.451 327.761C540.585 327.663 538.49 326.991 536.5 329.225C535.832 330.07 535.487 331.125 535.528 332.202C535.319 334.419 535.275 336.644 535.269 338.87C535.243 346.377 535.011 353.93 535.335 361.428C535.432 363.656 535.545 366.03 535.798 368.167C535.84 368.506 535.973 368.833 536.047 369.163C535.86 368.341 536.373 369.671 536.114 369.27C535.854 368.868 535.434 369.228 536.304 369.36C535.806 369.284 536.952 369.295 536.894 369.295C538.94 369.102 540.962 368.714 542.934 368.136C545.061 367.808 547.139 367.219 549.121 366.383C550.069 365.913 549.833 366.067 550.335 365.373C551.087 364.277 551.682 363.08 552.1 361.817C552.934 359.338 553.578 356.799 554.026 354.222C555.081 349.671 555.726 345.034 555.953 340.367C556.005 333.908 566.045 333.894 565.993 340.367C565.725 345.933 564.96 351.463 563.707 356.891C562.558 362.871 560.826 370.387 555.593 374.166C551.052 377.446 544.405 378.245 539.015 379.094C537.585 379.414 536.106 379.438 534.666 379.166C533.227 378.894 531.859 378.331 530.645 377.511C529.431 376.692 528.397 375.633 527.606 374.4C526.815 373.167 526.285 371.786 526.046 370.341C524.319 360.2 525.227 349.474 525.231 339.213C525.231 333.718 524.996 327.359 528.705 322.919C530.297 321.061 532.312 319.613 534.582 318.699C536.851 317.784 539.307 317.428 541.742 317.663C547.129 317.624 552.405 319.186 556.902 322.151C563.177 326.401 565.844 332.913 565.997 340.367C566.122 346.826 556.082 346.824 555.953 340.363Z" fill="#211715"/>
<path d="M742.077 388.569C741.473 386.63 741.459 384.555 742.036 382.608C742.613 380.661 743.756 378.929 745.319 377.632C748.62 374.898 752.58 374.26 756.65 373.401C764.761 371.686 772.948 370.334 781.141 369.071C782.423 368.758 783.776 368.947 784.924 369.598C786.072 370.25 786.927 371.315 787.316 372.577C787.66 373.86 787.485 375.227 786.829 376.383C786.173 377.538 785.088 378.389 783.81 378.751C776.87 379.822 769.94 380.962 763.05 382.32C759.726 382.761 756.443 383.472 753.234 384.445C752.879 384.592 752.535 384.768 752.207 384.97C752.101 385.03 751.438 385.524 751.914 385.141C752.391 384.758 751.741 385.338 751.659 385.415C751.469 385.624 751.467 385.612 751.647 385.382C751.827 385.152 751.824 385.137 751.668 385.382C751.511 385.626 751.517 385.618 751.628 385.348C751.739 385.078 751.726 385.068 751.638 385.348C751.55 385.629 751.553 385.629 751.596 385.348C751.64 385.068 751.628 385.066 751.619 385.382C751.768 386.277 751.249 384.137 751.758 385.909C752.111 387.192 751.941 388.564 751.284 389.722C750.626 390.88 749.536 391.729 748.252 392.083C746.968 392.437 745.597 392.267 744.439 391.609C743.281 390.952 742.431 389.861 742.077 388.578V388.569Z" fill="#211715"/>
<path d="M693.197 482.505C736.764 482.505 766.877 516.248 766.877 555.734C766.877 601.44 738.376 630.335 693.195 630.335C646.969 630.335 619.512 601.44 619.512 555.734C619.512 515.98 649.782 482.505 693.197 482.505Z" fill="#211715"/>
<path d="M144.49 482.505C188.055 482.505 218.168 516.248 218.168 555.734C218.168 601.44 189.667 630.335 144.485 630.335C98.2601 630.335 70.8031 601.44 70.8031 555.734C70.8031 515.98 101.075 482.505 144.49 482.505Z" fill="#211715"/>
<path d="M693.198 477.485C710.916 477.386 728.167 483.168 742.247 493.926C755.12 504.04 764.444 517.985 768.873 533.746C777.501 564.284 768.58 601.097 742.623 620.523C730.073 629.918 714.463 634.313 698.962 635.193C682.647 636.118 665.661 633.445 651.185 625.572C623.106 610.317 611.264 576.598 615.106 545.989C617.084 529.286 624.348 513.653 635.838 501.37C647.417 489.268 662.638 481.288 679.177 478.646C683.812 477.898 688.497 477.507 693.191 477.477C699.652 477.448 699.661 487.488 693.191 487.517C677.712 487.372 662.622 492.368 650.287 501.721C639.046 510.599 630.928 522.829 627.112 536.635C623.323 551.109 623.579 566.346 627.85 580.685C631.223 592.947 638.38 603.831 648.302 611.786C659.469 619.949 672.822 624.588 686.644 625.105C701.094 626.007 716.181 624.02 728.948 617.285C740.351 611.285 749.468 601.706 754.897 590.02C760.917 576.557 763.153 561.707 761.362 547.068C759.724 532.444 753.308 518.768 743.108 508.161C732.908 497.554 719.493 490.608 704.944 488.4C701.058 487.797 697.13 487.504 693.198 487.523C686.739 487.496 686.726 477.456 693.198 477.485Z" fill="#211715"/>
<path d="M693.196 530.423C696.603 530.355 699.99 530.973 703.153 532.241C706.317 533.508 709.194 535.4 711.611 537.802C714.029 540.204 715.939 543.068 717.228 546.223C718.516 549.379 719.157 552.761 719.111 556.169C719.111 572.245 709.086 582.409 693.196 582.409C676.933 582.409 667.28 572.245 667.28 556.169C667.231 552.76 667.87 549.376 669.157 546.219C670.444 543.063 672.354 540.197 674.772 537.795C677.191 535.392 680.069 533.501 683.234 532.234C686.399 530.968 689.787 530.352 693.196 530.423Z" fill="white"/>
<path d="M144.49 477.485C162.208 477.386 179.459 483.168 193.539 493.926C206.411 504.041 215.734 517.986 220.163 533.746C228.794 564.284 219.871 601.097 193.915 620.523C181.366 629.918 165.753 634.313 150.252 635.193C133.937 636.118 116.951 633.445 102.477 625.572C74.3987 610.317 62.5558 576.598 66.3982 545.989C68.3766 529.286 75.6406 513.653 87.1305 501.37C98.709 489.267 113.93 481.287 130.469 478.646C135.104 477.898 139.789 477.507 144.483 477.477C150.945 477.448 150.953 487.488 144.483 487.517C129.004 487.372 113.915 492.368 101.58 501.721C90.3383 510.599 82.2201 522.829 78.4042 536.635C74.6156 551.109 74.8702 566.345 79.1404 580.685C82.5139 592.946 89.6713 603.83 99.5926 611.786C110.76 619.949 124.113 624.587 137.937 625.105C152.384 626.007 167.473 624.02 180.24 617.285C191.643 611.285 200.76 601.706 206.189 590.02C212.21 576.557 214.445 561.707 212.654 547.068C211.017 532.444 204.6 518.768 194.4 508.161C184.2 497.554 170.786 490.608 156.236 488.4C152.35 487.797 148.422 487.504 144.49 487.523C138.031 487.496 138.016 477.456 144.49 477.485Z" fill="#211715"/>
<path d="M144.487 530.423C147.894 530.355 151.28 530.974 154.444 532.241C157.607 533.509 160.483 535.401 162.901 537.803C165.318 540.205 167.228 543.069 168.516 546.224C169.804 549.379 170.444 552.761 170.398 556.169C170.398 572.245 160.375 582.409 144.483 582.409C128.222 582.409 118.567 572.245 118.567 556.169C118.519 552.76 119.157 549.376 120.445 546.219C121.732 543.062 123.643 540.196 126.062 537.794C128.481 535.391 131.359 533.5 134.524 532.234C137.69 530.967 141.078 530.351 144.487 530.423Z" fill="white"/>
</g>
<defs>
<clipPath id="clip0_173_595">
<rect width="846" height="846" fill="white" transform="matrix(-1 0 0 1 846 0)"/>
</clipPath>
</defs>
</svg>
